<?xml version="1.0" encoding="utf-8"?> <!-- Generator: Adobe Illustrator 21.0.2, SVG Export Plug-In . SVG Version: 6.00 Build 0)  --> <svg version="1.2" baseProfile="tiny" id="Calque_1" xmlns="http://www.w3.org/2000/svg" xmlns:xlink="http://www.w3.org/1999/xlink" x="0px" y="0px" viewBox="0 0 120 77" overflow="scroll" xml:space="preserve"> <rect fill-rule="evenodd" fill="#D282BE" width="120" height="77"/> <g> <path d="M17.2187996,59.2118988v-5.4550972c1.0556011-4.8095016,5.8066006-9.2089005,11.3203011-14.0185013 c2.7567997-2.4043007,5.7480011-5.3959999,5.7480011-9.3848c0-3.5776005-2.3462009-6.5692997-6.8628025-6.5692997 c-3.6362,0-6.158699,2.6395988-7.1556988,3.7538986l-4.3404007-5.7480984 c3.9883003-3.4604015,7.6835995-5.1030006,13.2558994-5.1030006c7.2734013,0,14.1357021,4.2231998,14.1357021,12.6693993 c0,7.097702-4.5161018,10.4405022-9.5018997,14.9570999c-2.1118011,1.9355011-6.2759018,5.5722008-6.8042011,7.9775009h17.0688 v6.9208984H17.2187996z"/> <path d="M58.1040001,59.2118988V26.6587009c-2.5219994,1.9940987-6.5102005,3.9296989-9.2671013,5.1615982l-2.8153992-6.3348999 c4.3403015-1.8183994,9.5605011-4.5751991,13.6665001-7.6835995h7.2142982v41.410099H58.1040001z"/> <path d="M98.3271027,50.5898018v8.622097h-8.2119064v-8.622097h-18.652298v-7.6836014L87.535202,17.8017998h10.7919006v26.3358994 h4.8681946v6.4521027H98.3271027z M90.1151962,25.0746994h-0.1171951 c-0.1756973,0.7040997-1.3496017,3.2261009-2.9912033,5.8071003l-8.4462967,13.2558994h11.5546951V25.0746994z"/> </g> <g> </g> </svg>